<?xml version="1.0" encoding="UTF-8"?>
<!DOCTYPE svg PUBLIC "-//W3C//DTD SVG 1.1//EN" "http://www.w3.org/Graphics/SVG/1.1/DTD/svg11.dtd">
<svg xmlns="http://www.w3.org/2000/svg" version="1.1" width="700px" height="115px" style="shape-rendering:geometricPrecision; text-rendering:geometricPrecision; image-rendering:optimizeQuality; fill-rule:evenodd; clip-rule:evenodd" xmlns:xlink="http://www.w3.org/1999/xlink">
<g><path style="opacity:0.251" fill="#490906" d="M 220.5,5.5 C 225.305,4.51283 230.305,4.17949 235.5,4.5C 235.768,6.09903 235.434,7.43236 234.5,8.5C 234.5,7.5 234.5,6.5 234.5,5.5C 229.833,5.5 225.167,5.5 220.5,5.5 Z"/></g>
<g><path style="opacity:1" fill="#d80406" d="M 305.5,58.5 C 305.215,60.288 305.548,61.9547 306.5,63.5C 307.429,62.3112 307.762,60.9778 307.5,59.5C 309.766,43.1412 312.266,26.8079 315,10.5C 315.037,8.02605 315.87,6.02605 317.5,4.5C 324.5,4.5 331.5,4.5 338.5,4.5C 338.5,33.8333 338.5,63.1667 338.5,92.5C 333.833,92.5 329.167,92.5 324.5,92.5C 324.667,70.1642 324.5,47.8308 324,25.5C 323.178,28.1168 322.678,30.7835 322.5,33.5C 321.293,38.414 320.626,43.414 320.5,48.5C 318.542,63.2486 316.042,77.9153 313,92.5C 308.263,93.4692 303.43,93.8025 298.5,93.5C 295.509,76.5522 292.842,59.5522 290.5,42.5C 289.992,37.7842 289.158,33.1176 288,28.5C 287.5,49.4974 287.333,70.4974 287.5,91.5C 287.5,92.1667 287.5,92.8333 287.5,93.5C 283.167,93.5 278.833,93.5 274.5,93.5C 274.5,63.8333 274.5,34.1667 274.5,4.5C 282.03,3.21363 289.53,3.21363 297,4.5C 300.16,22.4581 302.993,40.4581 305.5,58.5 Z"/></g>
<g><path style="opacity:1" fill="#d20506" d="M 386.5,78.5 C 386.5,77.5 386.5,76.5 386.5,75.5C 380.5,75.5 374.5,75.5 368.5,75.5C 368.5,76.5 368.5,77.5 368.5,78.5C 368.13,83.422 367.13,88.0886 365.5,92.5C 360.833,92.5 356.167,92.5 351.5,92.5C 351.5,91.1667 351.5,89.8333 351.5,88.5C 356.176,60.1098 361.176,31.7765 366.5,3.5C 374.087,3.18583 381.587,3.51916 389,4.5C 394.617,32.7504 399.783,61.0838 404.5,89.5C 404.449,91.0998 404.116,92.5998 403.5,94C 398.428,94.7511 393.428,94.4178 388.5,93C 387.232,88.287 386.565,83.4537 386.5,78.5 Z M 376.5,27.5 C 378.381,34.7867 380.048,42.12 381.5,49.5C 381.205,51.7354 381.539,53.7354 382.5,55.5C 382.5,57.8333 382.5,60.1667 382.5,62.5C 380.901,62.2322 379.568,62.5655 378.5,63.5C 377.167,63.5 375.833,63.5 374.5,63.5C 373.791,62.596 372.791,62.2627 371.5,62.5C 371.5,61.1667 371.5,59.8333 371.5,58.5C 372.895,54.4091 373.562,50.0758 373.5,45.5C 375.128,39.7324 376.128,33.7324 376.5,27.5 Z"/></g>
<g><path style="opacity:1" fill="#de0205" d="M 437.5,8.5 C 437.528,11.9164 438.528,14.9164 440.5,17.5C 440.5,17.8333 440.5,18.1667 440.5,18.5C 440.259,20.8984 440.926,22.8984 442.5,24.5C 442.5,24.8333 442.5,25.1667 442.5,25.5C 442.259,27.8984 442.926,29.8984 444.5,31.5C 444.5,31.8333 444.5,32.1667 444.5,32.5C 444.41,35.1522 445.076,37.4855 446.5,39.5C 446.41,42.1522 447.076,44.4855 448.5,46.5C 449.167,49.5 449.833,52.5 450.5,55.5C 450.461,56.7562 450.961,57.7562 452,58.5C 452.5,40.8365 452.667,23.1698 452.5,5.5C 456.833,5.5 461.167,5.5 465.5,5.5C 465.5,35.5 465.5,65.5 465.5,95.5C 459.833,95.5 454.167,95.5 448.5,95.5C 446.5,87.1667 444.5,78.8333 442.5,70.5C 442.59,67.8478 441.924,65.5145 440.5,63.5C 437.261,54.4363 434.595,45.103 432.5,35.5C 432.313,33.4357 431.813,31.4357 431,29.5C 430.5,48.8305 430.333,68.1638 430.5,87.5C 430.5,89.8333 430.5,92.1667 430.5,94.5C 425.833,94.5 421.167,94.5 416.5,94.5C 416.5,64.5 416.5,34.5 416.5,4.5C 423.5,4.5 430.5,4.5 437.5,4.5C 437.5,5.83333 437.5,7.16667 437.5,8.5 Z"/></g>
<g><path style="opacity:0.333" fill="#7e0306" d="M 182.5,6.5 C 185.146,5.83558 187.979,5.50224 191,5.5C 194.252,5.51911 197.085,6.18578 199.5,7.5C 193.925,6.5476 188.259,6.21427 182.5,6.5 Z"/></g>
<g><path style="opacity:1" fill="#d60506" d="M 220.5,5.5 C 225.167,5.5 229.833,5.5 234.5,5.5C 234.5,6.5 234.5,7.5 234.5,8.5C 228.974,25.2444 223.14,41.9111 217,58.5C 216.5,71.1623 216.333,83.8289 216.5,96.5C 215.167,96.5 213.833,96.5 212.5,96.5C 208.5,96.5 204.5,96.5 200.5,96.5C 200.837,82.796 200.337,69.1293 199,55.5C 192.791,39.3738 187.291,23.0404 182.5,6.5C 188.259,6.21427 193.925,6.5476 199.5,7.5C 199.723,11.1621 200.723,14.4954 202.5,17.5C 203.738,19.2143 204.405,21.2143 204.5,23.5C 204.12,25.698 204.787,27.3646 206.5,28.5C 206.5,28.8333 206.5,29.1667 206.5,29.5C 206.435,32.4715 207.269,35.1382 209,37.5C 211.437,35.0271 212.604,32.0271 212.5,28.5C 213.97,22.7592 215.636,17.0925 217.5,11.5C 219.213,10.3646 219.88,8.69798 219.5,6.5C 219.5,5.83333 219.833,5.5 220.5,5.5 Z"/></g>
<g><path style="opacity:1" fill="#db0205" d="M 488.5,5.5 C 492.634,6.48489 496.968,6.81822 501.5,6.5C 501.595,8.7857 502.262,10.7857 503.5,12.5C 503.41,15.1522 504.076,17.4855 505.5,19.5C 506.434,20.5676 506.768,21.901 506.5,23.5C 506.41,26.1522 507.076,28.4855 508.5,30.5C 509.434,31.5676 509.768,32.901 509.5,34.5C 509.41,37.1522 510.076,39.4855 511.5,41.5C 511.259,43.8984 511.926,45.8984 513.5,47.5C 514.301,49.0418 514.634,50.7085 514.5,52.5C 515.038,54.1172 515.371,55.7839 515.5,57.5C 515.709,58.9217 516.209,60.255 517,61.5C 517.5,43.1697 517.667,24.8364 517.5,6.5C 522.167,6.5 526.833,6.5 531.5,6.5C 531.5,37.1667 531.5,67.8333 531.5,98.5C 527.5,98.5 523.5,98.5 519.5,98.5C 517.585,98.7845 515.919,98.4511 514.5,97.5C 514.261,95.5328 514.594,93.6995 515.5,92C 514.473,91.4867 513.473,90.9867 512.5,90.5C 507.387,73.7238 502.72,56.7238 498.5,39.5C 498.371,37.7839 498.038,36.1172 497.5,34.5C 497.291,33.0783 496.791,31.745 496,30.5C 495.5,52.4975 495.333,74.4975 495.5,96.5C 491.5,96.5 487.5,96.5 483.5,96.5C 482.167,81.5149 481.501,66.1815 481.5,50.5C 481.667,35.1667 481.833,19.8333 482,4.5C 484.041,5.42308 486.208,5.75642 488.5,5.5 Z"/></g>
<g><path style="opacity:0.322" fill="#7f0806" d="M 488.5,5.5 C 493.167,5.5 497.833,5.5 502.5,5.5C 502.993,7.80562 503.326,10.139 503.5,12.5C 502.262,10.7857 501.595,8.7857 501.5,6.5C 496.968,6.81822 492.634,6.48489 488.5,5.5 Z"/></g>
<g><path style="opacity:0.937" fill="#680b06" d="M 158.5,6.5 C 152.131,6.34698 145.797,6.68031 139.5,7.5C 142.865,5.96082 146.531,5.29416 150.5,5.5C 153.355,5.50255 156.022,5.83588 158.5,6.5 Z"/></g>
<g><path style="opacity:0.996" fill="#db0205" d="M 158.5,6.5 C 167.456,8.02631 172.623,13.3596 174,22.5C 174.667,42.5 174.667,62.5 174,82.5C 172.046,92.2867 166.213,98.2867 156.5,100.5C 150.833,100.5 145.167,100.5 139.5,100.5C 133.22,98.7204 129.053,94.7204 127,88.5C 126.333,66.1667 126.333,43.8333 127,21.5C 128.92,14.7509 133.086,10.0842 139.5,7.5C 145.797,6.68031 152.131,6.34698 158.5,6.5 Z M 157.5,82.5 C 153.869,86.3848 149.536,87.3848 144.5,85.5C 143.925,80.0313 143.259,74.6979 142.5,69.5C 142.183,54.0888 142.517,38.7554 143.5,23.5C 147.788,19.6319 151.955,19.6319 156,23.5C 157.272,43.1452 157.772,62.8118 157.5,82.5 Z"/></g>
<g><path style="opacity:0.997" fill="#e20004" d="M 557.5,7.5 C 559.167,7.5 560.833,7.5 562.5,7.5C 562.5,11.5 562.5,15.5 562.5,19.5C 562.5,46.5 562.5,73.5 562.5,100.5C 558.833,100.5 555.167,100.5 551.5,100.5C 550.167,100.5 548.833,100.5 547.5,100.5C 547.5,69.5 547.5,38.5 547.5,7.5C 550.833,7.5 554.167,7.5 557.5,7.5 Z"/></g>
<g><path style="opacity:0.169" fill="#330905" d="M 593.5,8.5 C 588.5,8.5 583.5,8.5 578.5,8.5C 578.369,7.76109 578.536,7.09442 579,6.5C 583.934,7.14368 588.767,7.81035 593.5,8.5 Z"/></g>
<g><path style="opacity:0.999" fill="#dd0205" d="M 578.5,8.5 C 583.5,8.5 588.5,8.5 593.5,8.5C 595.415,8.21552 597.081,8.54885 598.5,9.5C 598.41,12.1522 599.076,14.4855 600.5,16.5C 600.41,19.1522 601.076,21.4855 602.5,23.5C 603.434,24.5676 603.768,25.901 603.5,27.5C 603.41,30.1522 604.076,32.4855 605.5,34.5C 606.434,35.5676 606.768,36.901 606.5,38.5C 606.259,40.8984 606.926,42.8984 608.5,44.5C 608.5,44.8333 608.5,45.1667 608.5,45.5C 608.294,48.4951 608.96,51.1617 610.5,53.5C 611.167,56.8333 611.833,60.1667 612.5,63.5C 612.461,64.7562 612.961,65.7562 614,66.5C 614.5,47.5029 614.667,28.5029 614.5,9.5C 618.833,9.5 623.167,9.5 627.5,9.5C 627.5,41.5 627.5,73.5 627.5,105.5C 624.167,105.5 620.833,105.5 617.5,105.5C 615.5,105.5 613.5,105.5 611.5,105.5C 606.031,86.6233 601.031,67.6233 596.5,48.5C 596.59,45.8478 595.924,43.5145 594.5,41.5C 594.477,39.0733 593.977,36.74 593,34.5C 592.5,57.1642 592.333,79.8309 592.5,102.5C 588.5,102.5 584.5,102.5 580.5,102.5C 578.507,71.5178 577.841,40.1845 578.5,8.5 Z"/></g>
<g><path style="opacity:0.999" fill="#dc0205" d="M 104.5,53.5 C 102.067,54.5477 102.067,55.2144 104.5,55.5C 106.017,55.5106 107.184,56.1772 108,57.5C 109.861,59.8877 111.194,62.5544 112,65.5C 112.296,77.3866 113.129,89.22 114.5,101C 114.355,101.772 114.022,102.439 113.5,103C 107.916,103.806 102.416,103.639 97,102.5C 96.5004,95.8417 96.3337,89.175 96.5,82.5C 96.8967,77.0414 96.3967,71.7081 95,66.5C 92.9589,64.0259 90.2923,63.0259 87,63.5C 84.7047,63.5465 82.8714,64.2132 81.5,65.5C 81.5,78.8333 81.5,92.1667 81.5,105.5C 80.5,105.5 79.5,105.5 78.5,105.5C 74.5,105.5 70.5,105.5 66.5,105.5C 66.5,73.5 66.5,41.5 66.5,9.5C 77.1202,8.37988 87.7869,8.21321 98.5,9C 105.631,10.7979 110.131,15.2979 112,22.5C 112.667,29.1667 112.667,35.8333 112,42.5C 110.971,47.2409 108.471,50.9075 104.5,53.5 Z M 93.5,24.5 C 95.3559,30.2819 96.0226,36.2819 95.5,42.5C 95.5,42.8333 95.5,43.1667 95.5,43.5C 92.0288,47.8909 87.3621,49.8909 81.5,49.5C 81.5,43.5 81.5,37.5 81.5,31.5C 82.4731,29.0521 82.8064,26.3854 82.5,23.5C 86.2343,23.3227 89.9009,23.6561 93.5,24.5 Z"/></g>
<g><path style="opacity:0.98" fill="#620f09" d="M 219.5,6.5 C 219.88,8.69798 219.213,10.3646 217.5,11.5C 217.796,9.59699 218.463,7.93033 219.5,6.5 Z"/></g>
<g><path style="opacity:1" fill="#e10105" d="M 43.5,10.5 C 46.8333,10.5 50.1667,10.5 53.5,10.5C 53.5,14.8333 53.5,19.1667 53.5,23.5C 51.901,23.2322 50.5676,23.5655 49.5,24.5C 45.5,24.5 41.5,24.5 37.5,24.5C 37.5,50.1667 37.5,75.8333 37.5,101.5C 37.5,104.167 37.5,106.833 37.5,109.5C 36.1667,109.5 34.8333,109.5 33.5,109.5C 29.8333,109.5 26.1667,109.5 22.5,109.5C 22.5,81.5 22.5,53.5 22.5,25.5C 18.6286,25.185 14.9619,25.5184 11.5,26.5C 9.56475,27.1495 7.56475,27.4828 5.5,27.5C 5.5,22.5 5.5,17.5 5.5,12.5C 18.3489,12.3651 31.0156,11.6985 43.5,10.5 Z"/></g>
<g><path style="opacity:0.998" fill="#720305" d="M 53.5,10.5 C 54.4861,14.97 54.8195,19.6367 54.5,24.5C 53.5,24.5 52.5,24.5 51.5,24.5C 50.8333,24.5 50.1667,24.5 49.5,24.5C 50.5676,23.5655 51.901,23.2322 53.5,23.5C 53.5,19.1667 53.5,14.8333 53.5,10.5 Z"/></g>
<g><path style="opacity:0.937" fill="#531008" d="M 199.5,7.5 C 201.277,10.5046 202.277,13.8379 202.5,17.5C 200.723,14.4954 199.723,11.1621 199.5,7.5 Z"/></g>
<g><path style="opacity:1" fill="#d60406" d="M 672.5,27.5 C 672.5,26.1667 671.833,25.5 670.5,25.5C 668.945,24.3673 667.111,23.7006 665,23.5C 663.301,23.3866 662.134,24.0532 661.5,25.5C 661.5,26.1667 661.167,26.5 660.5,26.5C 659.778,26.9175 659.278,27.5842 659,28.5C 658.5,38.4944 658.334,48.4944 658.5,58.5C 659.277,69.1482 659.61,79.8149 659.5,90.5C 659.157,92.4832 659.824,93.8166 661.5,94.5C 664.765,96.1587 668.099,96.4921 671.5,95.5C 673.048,95.1788 673.715,94.1788 673.5,92.5C 673.442,84.4792 673.776,76.4792 674.5,68.5C 671.833,68.5 669.167,68.5 666.5,68.5C 666.5,63.8333 666.5,59.1667 666.5,54.5C 673.891,54.2012 681.224,54.5345 688.5,55.5C 689.666,69.4881 689.833,83.4881 689,97.5C 686.982,102.521 683.815,106.687 679.5,110C 678.552,110.483 677.552,110.649 676.5,110.5C 669.378,110.825 662.378,110.159 655.5,108.5C 648.73,105.337 644.564,100.004 643,92.5C 642.5,71.836 642.333,51.1694 642.5,30.5C 643.344,27.6553 644.01,24.6553 644.5,21.5C 646.257,16.5746 649.59,13.0746 654.5,11C 669.208,5.77356 680.375,9.94022 688,23.5C 689.164,30.4599 689.997,37.4599 690.5,44.5C 685.489,44.6659 680.489,44.4993 675.5,44C 674.101,38.5917 673.101,33.0917 672.5,27.5 Z"/></g>
<g><path style="opacity:1" fill="#830c08" d="M 43.5,10.5 C 31.0156,11.6985 18.3489,12.3651 5.5,12.5C 6.26253,11.7321 7.26253,11.2321 8.5,11C 20.1619,10.5001 31.8286,10.3335 43.5,10.5 Z"/></g>
<g><path style="opacity:1" fill="#580f09" d="M 437.5,8.5 C 439.072,11.2154 440.072,14.2154 440.5,17.5C 438.528,14.9164 437.528,11.9164 437.5,8.5 Z"/></g>
<g><path style="opacity:0.008" fill="#0f0300" d="M 451.5,13.5 C 451.829,27.6766 451.496,41.6766 450.5,55.5C 449.833,52.5 449.167,49.5 448.5,46.5C 449.268,47.2625 449.768,48.2625 450,49.5C 450.169,37.3263 450.669,25.3263 451.5,13.5 Z"/></g>
<g><path style="opacity:0.949" fill="#540d06" d="M 503.5,12.5 C 504.924,14.5145 505.59,16.8478 505.5,19.5C 504.076,17.4855 503.41,15.1522 503.5,12.5 Z"/></g>
<g><path style="opacity:0.871" fill="#830908" d="M 598.5,9.5 C 599.924,11.5145 600.59,13.8478 600.5,16.5C 599.076,14.4855 598.41,12.1522 598.5,9.5 Z"/></g>
<g><path style="opacity:0.012" fill="#0e0200" d="M 613.5,18.5 C 613.829,33.676 613.496,48.676 612.5,63.5C 611.833,60.1667 611.167,56.8333 610.5,53.5C 611.268,54.2625 611.768,55.2625 612,56.5C 612.169,43.66 612.669,30.9934 613.5,18.5 Z"/></g>
<g><path style="opacity:0.949" fill="#4b0e08" d="M 440.5,18.5 C 441.738,20.2143 442.405,22.2143 442.5,24.5C 440.926,22.8984 440.259,20.8984 440.5,18.5 Z"/></g>
<g><path style="opacity:0.769" fill="#650a08" d="M 600.5,16.5 C 601.924,18.5145 602.59,20.8478 602.5,23.5C 601.076,21.4855 600.41,19.1522 600.5,16.5 Z"/></g>
<g><path style="opacity:1" fill="#7d0305" d="M 614.5,9.5 C 614.667,28.5029 614.5,47.5029 614,66.5C 612.961,65.7562 612.461,64.7562 612.5,63.5C 613.496,48.676 613.829,33.676 613.5,18.5C 613.162,14.7043 613.495,11.7043 614.5,9.5 Z"/></g>
<g><path style="opacity:0.032" fill="#230c04" d="M 670.5,25.5 C 667.5,25.5 664.5,25.5 661.5,25.5C 662.134,24.0532 663.301,23.3866 665,23.5C 667.111,23.7006 668.945,24.3673 670.5,25.5 Z"/></g>
<g><path style="opacity:0.018" fill="#140503" d="M 93.5,24.5 C 89.9009,23.6561 86.2343,23.3227 82.5,23.5C 82.8064,26.3854 82.4731,29.0521 81.5,31.5C 81.5,28.5 81.5,25.5 81.5,22.5C 85.1817,22.3347 88.8484,22.5014 92.5,23C 93.056,23.3826 93.3893,23.8826 93.5,24.5 Z"/></g>
<g><path style="opacity:0.624" fill="#3e0e02" d="M 670.5,25.5 C 671.833,25.5 672.5,26.1667 672.5,27.5C 671.5,27.1667 670.833,26.5 670.5,25.5 Z"/></g>
<g><path style="opacity:1" fill="#630e09" d="M 204.5,23.5 C 205.537,24.9303 206.204,26.597 206.5,28.5C 204.787,27.3646 204.12,25.698 204.5,23.5 Z"/></g>
<g><path style="opacity:0.973" fill="#5b0d06" d="M 506.5,23.5 C 507.924,25.5145 508.59,27.8478 508.5,30.5C 507.076,28.4855 506.41,26.1522 506.5,23.5 Z"/></g>
<g><path style="opacity:0.015" fill="#1c0503" d="M 157.5,82.5 C 157.772,62.8118 157.272,43.1452 156,23.5C 151.955,19.6319 147.788,19.6319 143.5,23.5C 143.574,21.5891 144.574,20.4224 146.5,20C 152.388,18.0052 156.221,19.8386 158,25.5C 158.829,44.6711 158.662,63.6711 157.5,82.5 Z"/></g>
<g><path style="opacity:0.175" fill="#260c04" d="M 381.5,49.5 C 380.048,42.12 378.381,34.7867 376.5,27.5C 376.337,25.1432 376.503,22.8098 377,20.5C 379.343,30.0454 380.843,39.7121 381.5,49.5 Z"/></g>
<g><path style="opacity:0.186" fill="#160303" d="M 49.5,24.5 C 50.1667,24.5 50.8333,24.5 51.5,24.5C 47.3656,25.4849 43.0323,25.8182 38.5,25.5C 38.8311,51.0055 38.4977,76.3388 37.5,101.5C 37.5,75.8333 37.5,50.1667 37.5,24.5C 41.5,24.5 45.5,24.5 49.5,24.5 Z"/></g>
<g><path style="opacity:0.965" fill="#4b1008" d="M 442.5,25.5 C 443.738,27.2143 444.405,29.2143 444.5,31.5C 442.926,29.8984 442.259,27.8984 442.5,25.5 Z"/></g>
<g><path style="opacity:0.264" fill="#160906" d="M 93.5,24.5 C 94.7498,24.5774 95.5831,25.244 96,26.5C 96.8174,32.0164 96.6507,37.3497 95.5,42.5C 96.0226,36.2819 95.3559,30.2819 93.5,24.5 Z"/></g>
<g><path style="opacity:0.212" fill="#4b0e06" d="M 644.5,21.5 C 644.01,24.6553 643.344,27.6553 642.5,30.5C 642.336,27.8127 642.503,25.146 643,22.5C 643.383,21.944 643.883,21.6107 644.5,21.5 Z"/></g>
<g><path style="opacity:1" fill="#4f1007" d="M 212.5,28.5 C 212.604,32.0271 211.437,35.0271 209,37.5C 207.269,35.1382 206.435,32.4715 206.5,29.5C 207.304,31.1887 208.304,32.8554 209.5,34.5C 210.518,32.4061 211.518,30.4061 212.5,28.5 Z"/></g>
<g><path style="opacity:0.718" fill="#530e07" d="M 603.5,27.5 C 604.924,29.5145 605.59,31.8478 605.5,34.5C 604.076,32.4855 603.41,30.1522 603.5,27.5 Z"/></g>
<g><path style="opacity:1" fill="#630305" d="M 517.5,6.5 C 517.667,24.8364 517.5,43.1697 517,61.5C 516.209,60.255 515.709,58.9217 515.5,57.5C 516.496,42.676 516.829,27.676 516.5,12.5C 516.205,10.2646 516.539,8.26465 517.5,6.5 Z"/></g>
<g><path style="opacity:0.98" fill="#510f07" d="M 444.5,32.5 C 445.924,34.5145 446.59,36.8478 446.5,39.5C 445.076,37.4855 444.41,35.1522 444.5,32.5 Z"/></g>
<g><path style="opacity:0.015" fill="#110301" d="M 322.5,33.5 C 323.497,50.3251 323.83,67.3251 323.5,84.5C 322.669,70.6727 322.169,56.6727 322,42.5C 321.809,44.7078 321.309,46.7078 320.5,48.5C 320.626,43.414 321.293,38.414 322.5,33.5 Z"/></g>
<g><path style="opacity:1" fill="#9c0104" d="M 451.5,5.5 C 451.833,5.5 452.167,5.5 452.5,5.5C 452.667,23.1698 452.5,40.8365 452,58.5C 450.961,57.7562 450.461,56.7562 450.5,55.5C 451.496,41.6766 451.829,27.6766 451.5,13.5C 451.5,10.8333 451.5,8.16667 451.5,5.5 Z"/></g>
<g><path style="opacity:0.992" fill="#640d08" d="M 509.5,34.5 C 510.924,36.5145 511.59,38.8478 511.5,41.5C 510.076,39.4855 509.41,37.1522 509.5,34.5 Z"/></g>
<g><path style="opacity:0.929" fill="#430e05" d="M 606.5,38.5 C 607.738,40.2143 608.405,42.2143 608.5,44.5C 606.926,42.8984 606.259,40.8984 606.5,38.5 Z"/></g>
<g><path style="opacity:1" fill="#490405" d="M 324.5,92.5 C 324.5,92.8333 324.5,93.1667 324.5,93.5C 323.523,90.7131 323.19,87.7131 323.5,84.5C 323.83,67.3251 323.497,50.3251 322.5,33.5C 322.678,30.7835 323.178,28.1168 324,25.5C 324.5,47.8308 324.667,70.1642 324.5,92.5 Z"/></g>
<g><path style="opacity:0.992" fill="#520f08" d="M 446.5,39.5 C 447.924,41.5145 448.59,43.8478 448.5,46.5C 447.076,44.4855 446.41,42.1522 446.5,39.5 Z"/></g>
<g><path style="opacity:0.018" fill="#0f0402" d="M 660.5,26.5 C 659.901,37.3092 659.235,47.9759 658.5,58.5C 658.334,48.4944 658.5,38.4944 659,28.5C 659.278,27.5842 659.778,26.9175 660.5,26.5 Z"/></g>
<g><path style="opacity:0.937" fill="#520d06" d="M 511.5,41.5 C 512.738,43.2143 513.405,45.2143 513.5,47.5C 511.926,45.8984 511.259,43.8984 511.5,41.5 Z"/></g>
<g><path style="opacity:0.008" fill="#2a0c04" d="M 594.5,41.5 C 595.924,43.5145 596.59,45.8478 596.5,48.5C 595.076,46.4855 594.41,44.1522 594.5,41.5 Z"/></g>
<g><path style="opacity:0.278" fill="#2a0c04" d="M 95.5,43.5 C 95.5479,46.2919 94.2146,48.1253 91.5,49C 88.05,50.4287 84.7167,50.5953 81.5,49.5C 87.3621,49.8909 92.0288,47.8909 95.5,43.5 Z"/></g>
<g><path style="opacity:0.094" fill="#210402" d="M 432.5,35.5 C 431.833,52.8333 431.167,70.1667 430.5,87.5C 430.333,68.1638 430.5,48.8305 431,29.5C 431.813,31.4357 432.313,33.4357 432.5,35.5 Z"/></g>
<g><path style="opacity:1" fill="#551106" d="M 608.5,45.5 C 609.768,47.9052 610.435,50.5718 610.5,53.5C 608.96,51.1617 608.294,48.4951 608.5,45.5 Z"/></g>
<g><path style="opacity:0.498" fill="#380c05" d="M 373.5,45.5 C 373.562,50.0758 372.895,54.4091 371.5,58.5C 371.28,53.9 371.946,49.5667 373.5,45.5 Z"/></g>
<g><path style="opacity:0.039" fill="#140303" d="M 104.5,53.5 C 104.5,54.1667 104.5,54.8333 104.5,55.5C 102.067,55.2144 102.067,54.5477 104.5,53.5 Z"/></g>
<g><path style="opacity:0.192" fill="#070404" d="M 516.5,12.5 C 516.829,27.676 516.496,42.676 515.5,57.5C 515.371,55.7839 515.038,54.1172 514.5,52.5C 515.167,39.1667 515.833,25.8333 516.5,12.5 Z"/></g>
<g><path style="opacity:0.028" fill="#030202" d="M 497.5,34.5 C 498.038,36.1172 498.371,37.7839 498.5,39.5C 497.833,56.5 497.167,73.5 496.5,90.5C 496.17,71.6592 496.503,52.9925 497.5,34.5 Z"/></g>
<g><path style="opacity:0.294" fill="#0c0504" d="M 305.5,58.5 C 306.167,58.8333 306.833,59.1667 307.5,59.5C 307.762,60.9778 307.429,62.3112 306.5,63.5C 305.548,61.9547 305.215,60.288 305.5,58.5 Z"/></g>
<g><path style="opacity:0.052" fill="#130402" d="M 382.5,55.5 C 383.473,57.9479 383.806,60.6146 383.5,63.5C 381.833,63.5 380.167,63.5 378.5,63.5C 380.167,63.5 381.833,63.5 383.5,63.5C 383.806,60.6146 383.473,57.9479 382.5,55.5 Z"/></g>
<g><path style="opacity:0.74" fill="#610305" d="M 465.5,95.5 C 465.5,65.5 465.5,35.5 465.5,5.5C 461.167,5.5 456.833,5.5 452.5,5.5C 452.167,5.5 451.833,5.5 451.5,5.5C 451.369,4.76109 451.536,4.09442 452,3.5C 456.737,4.46918 461.57,4.80251 466.5,4.5C 466.831,35.0046 466.498,65.3379 465.5,95.5 Z"/></g>
<g><path style="opacity:1" fill="#840205" d="M 274.5,4.5 C 274.5,34.1667 274.5,63.8333 274.5,93.5C 278.833,93.5 283.167,93.5 287.5,93.5C 283.03,94.4861 278.363,94.8195 273.5,94.5C 273.169,64.3287 273.502,34.3287 274.5,4.5 Z"/></g>
<g><path style="opacity:0.026" fill="#130302" d="M 371.5,58.5 C 371.5,59.8333 371.5,61.1667 371.5,62.5C 372.791,62.2627 373.791,62.596 374.5,63.5C 373.167,63.5 371.833,63.5 370.5,63.5C 370.216,61.5853 370.549,59.9187 371.5,58.5 Z"/></g>
<g><path style="opacity:0.718" fill="#1c0603" d="M 96.5,82.5 C 95.8934,77.5723 95.0601,72.5723 94,67.5C 90.2361,64.4248 86.0694,63.7582 81.5,65.5C 82.8714,64.2132 84.7047,63.5465 87,63.5C 90.2923,63.0259 92.9589,64.0259 95,66.5C 96.3967,71.7081 96.8967,77.0414 96.5,82.5 Z"/></g>
<g><path style="opacity:0.004" fill="#2e0c03" d="M 440.5,63.5 C 441.924,65.5145 442.59,67.8478 442.5,70.5C 441.076,68.4855 440.41,66.1522 440.5,63.5 Z"/></g>
<g><path style="opacity:1" fill="#7e0705" d="M 11.5,26.5 C 14.9619,25.5184 18.6286,25.185 22.5,25.5C 22.5,53.5 22.5,81.5 22.5,109.5C 26.1667,109.5 29.8333,109.5 33.5,109.5C 29.9694,110.23 26.3027,110.896 22.5,111.5C 21.5002,83.1745 21.1669,54.8412 21.5,26.5C 18.1667,26.5 14.8333,26.5 11.5,26.5 Z"/></g>
<g><path style="opacity:0.02" fill="#050101" d="M 142.5,69.5 C 143.259,74.6979 143.925,80.0313 144.5,85.5C 143.883,85.3893 143.383,85.056 143,84.5C 142.501,79.5111 142.334,74.5111 142.5,69.5 Z"/></g>
<g><path style="opacity:0.892" fill="#770305" d="M 317.5,4.5 C 324.648,3.50837 331.981,3.17503 339.5,3.5C 339.5,33.5 339.5,63.5 339.5,93.5C 334.5,93.5 329.5,93.5 324.5,93.5C 324.5,93.1667 324.5,92.8333 324.5,92.5C 329.167,92.5 333.833,92.5 338.5,92.5C 338.5,63.1667 338.5,33.8333 338.5,4.5C 331.5,4.5 324.5,4.5 317.5,4.5 Z"/></g>
<g><path style="opacity:0.067" fill="#2f0702" d="M 290.5,42.5 C 289.71,43.6085 289.21,44.9419 289,46.5C 288.831,61.6723 288.331,76.6723 287.5,91.5C 287.333,70.4974 287.5,49.4974 288,28.5C 289.158,33.1176 289.992,37.7842 290.5,42.5 Z"/></g>
<g><path style="opacity:0.966" fill="#440504" d="M 562.5,19.5 C 563.497,39.9933 563.831,60.6599 563.5,81.5C 564.126,88.5837 563.459,95.2504 561.5,101.5C 557.958,101.813 554.625,101.479 551.5,100.5C 555.167,100.5 558.833,100.5 562.5,100.5C 562.5,73.5 562.5,46.5 562.5,19.5 Z"/></g>
<g><path style="opacity:1" fill="#520905" d="M 386.5,78.5 C 380.581,75.9174 374.581,75.9174 368.5,78.5C 368.5,77.5 368.5,76.5 368.5,75.5C 374.5,75.5 380.5,75.5 386.5,75.5C 386.5,76.5 386.5,77.5 386.5,78.5 Z"/></g>
<g><path style="opacity:0.493" fill="#5f0404" d="M 557.5,7.5 C 554.167,7.5 550.833,7.5 547.5,7.5C 547.5,38.5 547.5,69.5 547.5,100.5C 546.502,69.3378 546.168,38.0044 546.5,6.5C 550.371,6.18503 554.038,6.51836 557.5,7.5 Z"/></g>
<g><path style="opacity:1" fill="#610304" d="M 497.5,34.5 C 496.503,52.9925 496.17,71.6592 496.5,90.5C 496.5,92.8333 496.5,95.1667 496.5,97.5C 491.968,97.8182 487.634,97.4849 483.5,96.5C 487.5,96.5 491.5,96.5 495.5,96.5C 495.333,74.4975 495.5,52.4975 496,30.5C 496.791,31.745 497.291,33.0783 497.5,34.5 Z"/></g>
<g><path style="opacity:0.028" fill="#000000" d="M 563.5,81.5 C 564.491,88.3134 564.825,95.3134 564.5,102.5C 563.209,102.737 562.209,102.404 561.5,101.5C 563.459,95.2504 564.126,88.5837 563.5,81.5 Z"/></g>
<g><path style="opacity:1" fill="#990705" d="M 66.5,9.5 C 66.5,41.5 66.5,73.5 66.5,105.5C 70.5,105.5 74.5,105.5 78.5,105.5C 74.6347,106.224 70.6347,106.891 66.5,107.5C 65.17,74.6692 65.17,42.0025 66.5,9.5 Z"/></g>
<g><path style="opacity:0.114" fill="#110403" d="M 157.5,82.5 C 157.084,84.7525 155.751,86.2525 153.5,87C 150.833,87.6667 148.167,87.6667 145.5,87C 144.944,86.6174 144.611,86.1174 144.5,85.5C 149.536,87.3848 153.869,86.3848 157.5,82.5 Z"/></g>
<g><path style="opacity:0.996" fill="#3b0604" d="M 594.5,41.5 C 593.354,62.0048 593.354,82.6715 594.5,103.5C 589.637,103.819 584.97,103.486 580.5,102.5C 584.5,102.5 588.5,102.5 592.5,102.5C 592.333,79.8309 592.5,57.1642 593,34.5C 593.977,36.74 594.477,39.0733 594.5,41.5 Z"/></g>
<g><path style="opacity:1" fill="#82110b" d="M 512.5,90.5 C 513.473,90.9867 514.473,91.4867 515.5,92C 514.594,93.6995 514.261,95.5328 514.5,97.5C 513.388,95.4006 512.721,93.0673 512.5,90.5 Z"/></g>
<g><path style="opacity:0.745" fill="#8d0305" d="M 351.5,88.5 C 351.5,89.8333 351.5,91.1667 351.5,92.5C 356.167,92.5 360.833,92.5 365.5,92.5C 360.695,93.4872 355.695,93.8205 350.5,93.5C 350.216,91.5853 350.549,89.9187 351.5,88.5 Z"/></g>
<g><path style="opacity:1" fill="#5d140a" d="M 659.5,90.5 C 660.345,91.6715 661.011,93.0048 661.5,94.5C 659.824,93.8166 659.157,92.4832 659.5,90.5 Z"/></g>
<g><path style="opacity:0.96" fill="#5c0504" d="M 627.5,9.5 C 628.664,41.9974 628.831,74.6641 628,107.5C 624.397,106.865 620.897,106.198 617.5,105.5C 620.833,105.5 624.167,105.5 627.5,105.5C 627.5,73.5 627.5,41.5 627.5,9.5 Z"/></g>
<g><path style="opacity:0.973" fill="#5e100a" d="M 673.5,92.5 C 673.715,94.1788 673.048,95.1788 671.5,95.5C 671.932,94.2905 672.599,93.2905 673.5,92.5 Z"/></g>
<g><path style="opacity:0.388" fill="#330902" d="M 200.5,96.5 C 204.5,96.5 208.5,96.5 212.5,96.5C 208.969,97.2296 205.303,97.8963 201.5,98.5C 200.702,98.0431 200.369,97.3764 200.5,96.5 Z"/></g>
<g><path style="opacity:0.592" fill="#380803" d="M 519.5,98.5 C 523.5,98.5 527.5,98.5 531.5,98.5C 531.631,99.3764 531.298,100.043 530.5,100.5C 526.697,99.8963 523.031,99.2296 519.5,98.5 Z"/></g>
<g><path style="opacity:1" fill="#7f0c07" d="M 139.5,100.5 C 145.167,100.5 150.833,100.5 156.5,100.5C 153.772,101.205 150.939,101.872 148,102.5C 145.061,101.872 142.228,101.205 139.5,100.5 Z"/></g>
<g><path style="opacity:0.61" fill="#690c07" d="M 655.5,108.5 C 662.378,110.159 669.378,110.825 676.5,110.5C 671.684,111.65 666.684,111.816 661.5,111C 659.277,110.434 657.277,109.6 655.5,108.5 Z"/></g>
</svg>
